<svg xmlns="http://www.w3.org/2000/svg" viewBox="0 0 96 96">
  <rect width="96" height="96" rx="48" fill="#FCE7D6"/>
  <circle cx="48" cy="38" r="21" fill="#E8B6A4"/>
  <path d="M26 36c1-19 10-27 23-27 14 0 22 10 22 27-8-9-15-13-23-13-8 0-15 4-22 13Z" fill="#34252C"/>
  <path d="M17 96c3-23 16-35 31-35 16 0 29 12 32 35H17Z" fill="#9E5B4D"/>
  <circle cx="40" cy="38" r="2" fill="#2a2525"/>
  <circle cx="56" cy="38" r="2" fill="#2a2525"/>
  <path d="M42 48c4 3 8 3 12 0" fill="none" stroke="#7d4d45" stroke-width="2" stroke-linecap="round"/>
</svg>